<?xml version="1.0" encoding="UTF-8"?>
<!DOCTYPE svg PUBLIC "-//W3C//DTD SVG 1.1//EN" "http://www.w3.org/Graphics/SVG/1.1/DTD/svg11.dtd">
<!-- Creator: CorelDRAW 2017 -->
<svg xmlns="http://www.w3.org/2000/svg" xml:space="preserve" width="105.894mm" height="66.698mm" version="1.1" style="shape-rendering:geometricPrecision; text-rendering:geometricPrecision; image-rendering:optimizeQuality; fill-rule:evenodd; clip-rule:evenodd"
viewBox="0 0 7454.37 4695.19"
 xmlns:xlink="http://www.w3.org/1999/xlink">
 <defs>
  <style type="text/css">
   <![CDATA[
    .str1 {stroke:#FEFEFE;stroke-width:140.79;stroke-linejoin:round;stroke-miterlimit:22.9256}
    .str0 {stroke:#EDCF3D;stroke-width:140.79;stroke-linejoin:round;stroke-miterlimit:22.9256}
    .fil0 {fill:none}
    .fil2 {fill:none;fill-rule:nonzero}
    .fil1 {fill:#EDCF3D}
    .fil3 {fill:#FECC00;fill-rule:nonzero}
   ]]>
  </style>
 </defs>
 <g id="Слой_x0020_1">
  <metadata id="CorelCorpID_0Corel-Layer"/>
  <g id="_2845673517648">
   <g>
    <g>
     <path class="fil0 str0" d="M5858.16 1180.81l-0.83 -66.73 143.15 -1.8 -7.97 -639.07c-0.03,-2.1 -0.06,-4.51 -0.1,-7.12l-143.13 1.8 -4.72 -378.55 1521.94 -18.96 4.71 378.56 -143.14 1.77 8.03 644.29c0.01,0.61 0.01,1.24 0.02,1.89 0.65,-0.01 1.3,-0.02 1.9,-0.02l141.25 -1.75 4.72 378.51 -1338.75 16.68 51.06 84.47 -322.68 193.26 -56.19 -87.3c-29.26,-45.48 -66.05,-84.11 -112.27,-112.47 -44.16,-27.1 -124.67,-16.56 -172.15,-7.07l-504.76 100.85c-47.45,9.48 -125.21,30.7 -155.62,72.49 -32.08,44.07 -51.29,94.2 -61.12,147.62l-18.73 101.83 -370.78 -54.91 21.22 -141.06 -1223.9 496.32 -1.1 -2.72 -509.22 333.62 -205.98 -314.38 78.84 -54.58 -0.44 -0.35 -174.48 114.31 0.06 0.3 81.16 -53.16 207.46 316.63 -564.9 370.09 -9.1 -13.88 -960.09 957.8 -267.36 -267.98 101.35 -101.12 -451.38 -452.45c-1.55,-1.56 -3.25,-3.27 -5.03,-5.07l-101.35 101.12 -267.37 -268.01 1077.54 -1074.97 267.36 268.01 -101.33 101.11 455.06 456.17c0.44,0.43 0.88,0.87 1.35,1.34 0.44,-0.46 0.9,-0.91 1.33,-1.34l100.01 -99.76 30.57 30.63 10.67 -6.99c4.53,-2.97 10.95,-7.17 16.53,-11.43 -1.05,-7.03 -2.66,-14.47 -3.84,-20.02l-222.81 -1056.06 347.29 -227.52 860.46 614.29c8.58,5.96 23.09,16.09 35.72,23.15 5.65,-3.17 11.33,-6.86 15.16,-9.37l89.69 -58.75 15.77 24.08 42.79 -17.35 -240.18 -592.26c-0.79,-1.95 -1.69,-4.19 -2.69,-6.6l-132.64 53.8 -142.27 -350.83 317.72 -128.84c-85.13,-25.44 -160.8,-74.22 -196.06,-161.17 -25.06,-61.83 -23.56,-127.18 7.47,-186.62 27.26,-52.22 68.93,-91.61 123.61,-113.79 34.89,-14.16 72.18,-18.72 109.57,-14.72 30.45,3.25 61.02,10.08 88.11,24.78 25.76,13.99 50.4,35.72 71.78,55.68 7.7,7.19 25.45,23.09 37.25,29.4 15.52,-2.1 41.91,-12.34 53.69,-17.11 11.83,-4.79 38.18,-16.04 50.31,-25.38 4.6,-12.26 6.69,-36.45 7.26,-46.91 1.58,-28.33 3.79,-59.9 11.53,-87.23 8.74,-30.86 26.06,-58.16 46.57,-82.5 24.34,-28.9 54.33,-51.11 89.37,-65.31 54.54,-22.12 111.91,-22.79 167.71,-4.34 63.76,21.09 110.39,67.23 135.55,129.27 35.19,86.77 15.16,174.16 -28.32,251.52l317.38 -128.7 142.27 350.8 -132.66 53.8 242.14 597.12c0.23,0.56 0.47,1.15 0.72,1.76 0.61,-0.25 1.18,-0.49 1.74,-0.71l130.91 -53.09 14.47 35.66 2.49 -16.58 116.64 -23.29c1.32,-0.26 3.51,-0.75 5.24,-1.35 1.46,-3.82 2.39,-10.3 2.73,-13.33l73.34 -660.58 -140.76 28.14 -74.15 -371.23 1252.89 -250.32 74.16 371.2 -140.37 28.07 126.24 631.84c0.13,0.6 0.25,1.22 0.38,1.87 0.44,-0.09 0.85,-0.18 1.27,-0.25l107.2 -21.43 48.85 80.81zm-4903.67 1416.48l-155.93 155.57 70.49 70.64 155.93 -155.56 -70.49 -70.65zm401.83 511.95l54.58 -54.45c-0.52,-0.53 -1.04,-1.05 -1.54,-1.56l-102.23 -102.47 -155.93 155.57 102.23 102.47c0.51,0.51 1.02,1.03 1.54,1.55l101.35 -101.11zm1981.06 -2019.16l55.51 136.88 91.18 -196.36 -146.7 59.48zm377.13 544.41l69.84 -28.32c-0.29,-0.7 -0.56,-1.39 -0.82,-2.02l-58.85 -145.13 -99.97 211.88 89.79 -36.44 0.01 0.03zm2785.61 -1174.72l1.84 147.7 156.47 -149.69 -158.31 1.99zm152.96 644.4l75.34 -0.97c-0.01,-0.76 -0.01,-1.49 -0.03,-2.18l-1.95 -156.58 -170.27 160.92 96.91 -1.19zm-1454.27 96.42l-118.41 -592.62 -67.09 13.41 -56.82 627.63 242.33 -48.42z"/>
     <path id="1" class="fil1" d="M5858.16 1180.81l-0.83 -66.73 143.15 -1.8 -7.97 -639.07c-0.03,-2.1 -0.06,-4.51 -0.1,-7.12l-143.13 1.8 -4.72 -378.55 1521.94 -18.96 4.71 378.56 -143.14 1.77 8.03 644.29c0.01,0.61 0.01,1.24 0.02,1.89 0.65,-0.01 1.3,-0.02 1.9,-0.02l141.25 -1.75 4.72 378.51 -1338.75 16.68 51.06 84.47 -322.68 193.26 -56.19 -87.3c-29.26,-45.48 -66.05,-84.11 -112.27,-112.47 -44.16,-27.1 -124.67,-16.56 -172.15,-7.07l-504.76 100.85c-47.45,9.48 -125.21,30.7 -155.62,72.49 -32.08,44.07 -51.29,94.2 -61.12,147.62l-18.73 101.83 -370.78 -54.91 21.22 -141.06 -1223.9 496.32 -1.1 -2.72 -509.22 333.62 -205.98 -314.38 78.84 -54.58 -0.44 -0.35 -174.48 114.31 0.06 0.3 81.16 -53.16 207.46 316.63 -564.9 370.09 -9.1 -13.88 -960.09 957.8 -267.36 -267.98 101.35 -101.12 -451.38 -452.45c-1.55,-1.56 -3.25,-3.27 -5.03,-5.07l-101.35 101.12 -267.37 -268.01 1077.54 -1074.97 267.36 268.01 -101.33 101.11 455.06 456.17c0.44,0.43 0.88,0.87 1.35,1.34 0.44,-0.46 0.9,-0.91 1.33,-1.34l100.01 -99.76 30.57 30.63 10.67 -6.99c4.53,-2.97 10.95,-7.17 16.53,-11.43 -1.05,-7.03 -2.66,-14.47 -3.84,-20.02l-222.81 -1056.06 347.29 -227.52 860.46 614.29c8.58,5.96 23.09,16.09 35.72,23.15 5.65,-3.17 11.33,-6.86 15.16,-9.37l89.69 -58.75 15.77 24.08 42.79 -17.35 -240.18 -592.26c-0.79,-1.95 -1.69,-4.19 -2.69,-6.6l-132.64 53.8 -142.27 -350.83 317.72 -128.84c-85.13,-25.44 -160.8,-74.22 -196.06,-161.17 -25.06,-61.83 -23.56,-127.18 7.47,-186.62 27.26,-52.22 68.93,-91.61 123.61,-113.79 34.89,-14.16 72.18,-18.72 109.57,-14.72 30.45,3.25 61.02,10.08 88.11,24.78 25.76,13.99 50.4,35.72 71.78,55.68 7.7,7.19 25.45,23.09 37.25,29.4 15.52,-2.1 41.91,-12.34 53.69,-17.11 11.83,-4.79 38.18,-16.04 50.31,-25.38 4.6,-12.26 6.69,-36.45 7.26,-46.91 1.58,-28.33 3.79,-59.9 11.53,-87.23 8.74,-30.86 26.06,-58.16 46.57,-82.5 24.34,-28.9 54.33,-51.11 89.37,-65.31 54.54,-22.12 111.91,-22.79 167.71,-4.34 63.76,21.09 110.39,67.23 135.55,129.27 35.19,86.77 15.16,174.16 -28.32,251.52l317.38 -128.7 142.27 350.8 -132.66 53.8 242.14 597.12c0.23,0.56 0.47,1.15 0.72,1.76 0.61,-0.25 1.18,-0.49 1.74,-0.71l130.91 -53.09 14.47 35.66 2.49 -16.58 116.64 -23.29c1.32,-0.26 3.51,-0.75 5.24,-1.35 1.46,-3.82 2.39,-10.3 2.73,-13.33l73.34 -660.58 -140.76 28.14 -74.15 -371.23 1252.89 -250.32 74.16 371.2 -140.37 28.07 126.24 631.84c0.13,0.6 0.25,1.22 0.38,1.87 0.44,-0.09 0.85,-0.18 1.27,-0.25l107.2 -21.43 48.85 80.81zm-4903.67 1416.48l-155.93 155.57 70.49 70.64 155.93 -155.56 -70.49 -70.65zm401.83 511.95l54.58 -54.45c-0.52,-0.53 -1.04,-1.05 -1.54,-1.56l-102.23 -102.47 -155.93 155.57 102.23 102.47c0.51,0.51 1.02,1.03 1.54,1.55l101.35 -101.11zm1981.06 -2019.16l55.51 136.88 91.18 -196.36 -146.7 59.48zm377.13 544.41l69.84 -28.32c-0.29,-0.7 -0.56,-1.39 -0.82,-2.02l-58.85 -145.13 -99.97 211.88 89.79 -36.44 0.01 0.03zm2785.61 -1174.72l1.84 147.7 156.47 -149.69 -158.31 1.99zm152.96 644.4l75.34 -0.97c-0.01,-0.76 -0.01,-1.49 -0.03,-2.18l-1.95 -156.58 -170.27 160.92 96.91 -1.19zm-1454.27 96.42l-118.41 -592.62 -67.09 13.41 -56.82 627.63 242.33 -48.42z"/>
    </g>
   </g>
   <g>
    <path class="fil2 str1" d="M226.71 2949.37l410.34 -409.35 115.9 116.18 -37.69 37.61c-20.81,20.75 -32.96,37 -36.27,48.92 -3.51,11.71 -2.7,23.24 1.82,34.35 4.72,10.91 20.13,29.65 46.22,55.82l146.52 146.88 307.76 -307.01 -157.41 -157.79c-19.32,-19.37 -33.49,-31.11 -42.76,-35.85 -12.95,-6.4 -24.88,-7.64 -36,-3.96 -11.12,4.1 -29.65,18.89 -55.6,44.79l-31.52 31.45 -115.9 -116.18 410.34 -409.35 115.91 116.18 -34.4 34.31c-23.28,23.23 -36.87,40.49 -40.6,52.01 -3.92,11.31 -3.53,22.42 0.78,32.92 4.31,10.5 20.54,29.65 48.08,57.26l455.59 456.7c28.15,28.21 48.09,44.5 60.22,48.83 11.92,4.53 23.66,4.34 34.97,0.03 11.33,-4.3 30.9,-20.53 59.12,-48.68l24.1 -24.05 115.9 116.18 -410.35 409.35 -115.9 -116.18 26.79 -26.71c25.13,-25.07 39.97,-43.98 45.13,-56.94 4.74,-12.96 5.17,-24.88 0.65,-36.01 -4.1,-11.12 -20.33,-30.68 -48.48,-58.91l-177.96 -178.39 -307.76 307.01 177.96 178.39c28.16,28.23 46.85,44.5 56.11,49.24 14.19,5.99 26.95,6.41 38.67,1.29 11.33,-5.13 30.07,-20.54 55.61,-46.02l28.22 -28.15 115.9 116.18 -410.35 409.35 -115.9 -116.18 28.02 -27.95c23.27,-23.22 37.7,-41.72 43.07,-54.88 5.16,-13.37 5.99,-25.3 2.31,-36 -3.89,-10.91 -18.08,-28.42 -42.53,-52.94l-456.62 -457.72c-28.57,-28.62 -48.7,-45.52 -60.84,-50.68 -12.13,-5.16 -23.86,-6.2 -35.17,-3.13 -11.12,3.29 -27.4,15.4 -48.4,36.37l-37.7 37.6 -115.9 -116.18zm1590.86 -1368.98l224.65 -147.18 801.88 572.47c42.77,29.72 73.56,45.38 92.19,46.74 18.87,1.2 45.02,-9.32 78.61,-31.33l89.93 137.27 -470.21 308.07 -89.94 -137.27 28 -19.39c26.04,-17.06 42.07,-32.43 47.9,-46.34 6,-13.67 5.53,-25.55 -1,-35.52 -5.58,-8.52 -21.45,-23.17 -48.24,-43.88l-89.58 -70.37 -301.31 197.42 28.62 124.91c6.49,26.37 11.69,42.79 16.15,49.6 4.94,7.55 12.09,12.61 21.83,15.26 9.35,2.59 21.37,1.31 35.54,-4.14 9.3,-3.32 32.58,-17.18 69.33,-41.25l89.94 137.26 -385.52 252.58 -89.94 -137.27c24.83,-16.27 41.41,-30.26 50.13,-41.88 8.33,-11.71 13.67,-24.27 15.4,-37.56 1.71,-13.3 -0.54,-34.8 -6.67,-63.82l-207.69 -984.37zm322.41 554.75l197.15 -129.16 -274.66 -208.95 77.51 338.11zm586.52 -1098.03l538.74 -218.46 61.68 152.07 -50.16 20.34c-34.79,14.1 -55.51,28.79 -61.76,43.57 -6.26,14.77 -0.49,44.46 17.66,89.23l148.48 366.18 250.42 -539.25c-18.04,-44.5 -34.47,-67.97 -49.39,-70.7 -14.82,-2.47 -41.16,3.81 -79.18,19.22l-41.8 16.95 -61.67 -152.07 538.75 -218.47 61.67 152.08 -45.02 18.25c-38.29,15.53 -60.27,31.04 -65.76,46.14 -5.49,15.11 0.43,44.41 18.14,88.09l242.42 597.8c18.58,45.84 35.46,71.96 50.62,78.38 15.15,6.41 45.66,0.32 91.49,-18.26l31.55 -12.79 61.67 152.08 -538.74 218.46 -61.67 -152.07 35.6 -14.44c44.22,-17.93 69.31,-35.01 75.29,-51.25 5.98,-16.23 0,-46.47 -17.72,-90.15l-150.79 -371.83 -252.27 534.65c15.85,37.53 27.36,60.5 34.75,69.43 7,8.77 17.35,13.37 30.48,14.01 13.13,0.65 37.58,-6.44 73.17,-20.87l37.21 -15.09 61.67 152.08 -538.75 218.46 -61.67 -152.08 36.68 -14.87c43.41,-17.6 67.69,-34.36 73.4,-50.48 5.43,-16.02 0.5,-42.91 -14.92,-80.93l-242.96 -599.14c-19.03,-46.92 -36.06,-74.23 -51.12,-81.93 -15.32,-7.6 -40.39,-4.36 -75.17,9.75l-49.35 20.01 -61.67 -152.07zm568.88 -336.18c-132.4,53.69 -241.24,71.76 -326.65,53.95 -85.4,-17.8 -139.11,-53.48 -160.87,-107.13 -13.78,-33.97 -12.79,-66.4 3.17,-96.73 15.85,-30.61 38.66,-51.79 68.85,-64.03 17.79,-7.22 37.18,-9.74 57.89,-7.47 20.98,2.18 37.09,6.31 48.35,12.42 11.28,6.11 27.98,19.43 49.74,39.8 33.81,31.5 62.76,50.22 87.31,56.6 24.72,5.98 63.7,-1.66 117.09,-23.3 52.58,-21.32 85.87,-42.99 99.43,-64.5 13.73,-21.89 22.11,-55.44 24.93,-101.16 1.42,-29.78 4.02,-51.24 7.63,-64.01 3.62,-12.77 12.3,-26.96 25.42,-42.64 13.38,-15.79 29.04,-27.48 47.64,-35.02 29.93,-12.14 61.05,-12.83 93.74,-1.9 32.57,10.64 55.97,33.5 69.86,67.74 21.86,53.93 8.17,116.95 -41.2,188.77 -49.26,72.09 -140.23,135.05 -272.34,188.62zm1248.75 -125.46l-32.15 -160.93 1042.59 -208.3 32.15 160.92 -47.07 9.4c-40.8,8.15 -65.57,19.34 -73.79,33.14 -8.22,13.81 -7.88,43.71 1.35,89.93l126.38 632.58c9.69,48.5 21.39,77.32 35.08,86.47 13.69,9.12 44.8,8.85 92.73,-0.73l33.39 -6.67 192.35 318.22 -141.25 84.6c-39.59,-61.53 -88.48,-110.2 -146.34,-145.83 -58.15,-35.56 -141.11,-42.43 -249.25,-20.82l-504.76 100.84c-107.27,21.44 -181.24,59.65 -221.31,114.54 -39.77,54.83 -66.5,118.63 -79.87,191.31l-162.06 -23.99 55.32 -367.71 42.79 -8.55c55.37,-11.06 86.47,-46.95 93.55,-108l76.43 -688.24c2,-18.2 2.13,-32.47 0.01,-43.02 -9.29,-46.52 -47.29,-62.96 -114.05,-49.62l-52.22 10.44zm779.12 700.67l-160.41 -802.93 -250.81 50.11 -69.66 769.66c-1.44,13.64 -0.98,24.81 0.79,33.67 5.81,29.1 35.54,38.29 89.47,27.52l390.61 -78.04zm628.38 -1089.51l581.31 -7.24 2.05 164.09 -54.11 0.68c-37.53,0.46 -62.19,6.59 -73.39,18.08 -11.21,11.48 -16.66,41.24 -16.05,89.53l4.93 395.11 429.61 -411.01c-0.6,-48 -7.36,-75.85 -20.25,-83.83 -12.9,-7.7 -39.72,-11.44 -80.74,-10.93l-45.1 0.56 -2.05 -164.09 581.31 -7.26 2.04 164.09 -48.58 0.61c-41.32,0.52 -67.43,6.96 -78.04,19.02 -10.62,12.07 -15.78,41.52 -15.2,88.65l8.05 645.03c0.61,49.45 6.82,79.93 18.6,91.43 11.78,11.49 42.41,16.93 91.87,16.32l34.04 -0.43 2.04 164.09 -581.31 7.25 -2.05 -164.09 38.4 -0.48c47.72,-0.59 77.31,-7.37 88.8,-20.31 11.47,-12.95 16.92,-43.29 16.33,-90.42l-5.01 -401.22 -429.68 406.06c1.09,40.72 3.45,66.3 7.07,77.31 3.34,10.73 11.29,18.78 23.29,24.15 12,5.39 37.35,7.69 75.75,7.21l40.15 -0.5 2.05 164.09 -581.31 7.26 -2.05 -164.09 39.57 -0.5c46.84,-0.58 75.56,-7.35 86.75,-20.28 10.9,-12.95 16.09,-39.79 15.58,-80.81l-8.07 -646.48c-0.63,-50.63 -6.55,-82.26 -17.77,-94.93 -11.51,-12.65 -36.02,-18.75 -73.56,-18.29l-53.24 0.67 -2.05 -164.1z"/>
   </g>
   <path id="1" class="fil3" d="M226.71 2949.37l410.34 -409.35 115.9 116.18 -37.69 37.61c-20.81,20.75 -32.96,37 -36.27,48.92 -3.51,11.71 -2.7,23.24 1.82,34.35 4.72,10.91 20.13,29.65 46.22,55.82l146.52 146.88 307.76 -307.01 -157.41 -157.79c-19.32,-19.37 -33.49,-31.11 -42.76,-35.85 -12.95,-6.4 -24.88,-7.64 -36,-3.96 -11.12,4.1 -29.65,18.89 -55.6,44.79l-31.52 31.45 -115.9 -116.18 410.34 -409.35 115.91 116.18 -34.4 34.31c-23.28,23.23 -36.87,40.49 -40.6,52.01 -3.92,11.31 -3.53,22.42 0.78,32.92 4.31,10.5 20.54,29.65 48.08,57.26l455.59 456.7c28.15,28.21 48.09,44.5 60.22,48.83 11.92,4.53 23.66,4.34 34.97,0.03 11.33,-4.3 30.9,-20.53 59.12,-48.68l24.1 -24.05 115.9 116.18 -410.35 409.35 -115.9 -116.18 26.79 -26.71c25.13,-25.07 39.97,-43.98 45.13,-56.94 4.74,-12.96 5.17,-24.88 0.65,-36.01 -4.1,-11.12 -20.33,-30.68 -48.48,-58.91l-177.96 -178.39 -307.76 307.01 177.96 178.39c28.16,28.23 46.85,44.5 56.11,49.24 14.19,5.99 26.95,6.41 38.67,1.29 11.33,-5.13 30.07,-20.54 55.61,-46.02l28.22 -28.15 115.9 116.18 -410.35 409.35 -115.9 -116.18 28.02 -27.95c23.27,-23.22 37.7,-41.72 43.07,-54.88 5.16,-13.37 5.99,-25.3 2.31,-36 -3.89,-10.91 -18.08,-28.42 -42.53,-52.94l-456.62 -457.72c-28.57,-28.62 -48.7,-45.52 -60.84,-50.68 -12.13,-5.16 -23.86,-6.2 -35.17,-3.13 -11.12,3.29 -27.4,15.4 -48.4,36.37l-37.7 37.6 -115.9 -116.18zm1590.86 -1368.98l224.65 -147.18 801.88 572.47c42.77,29.72 73.56,45.38 92.19,46.74 18.87,1.2 45.02,-9.32 78.61,-31.33l89.93 137.27 -470.21 308.07 -89.94 -137.27 28 -19.39c26.04,-17.06 42.07,-32.43 47.9,-46.34 6,-13.67 5.53,-25.55 -1,-35.52 -5.58,-8.52 -21.45,-23.17 -48.24,-43.88l-89.58 -70.37 -301.31 197.42 28.62 124.91c6.49,26.37 11.69,42.79 16.15,49.6 4.94,7.55 12.09,12.61 21.83,15.26 9.35,2.59 21.37,1.31 35.54,-4.14 9.3,-3.32 32.58,-17.18 69.33,-41.25l89.94 137.26 -385.52 252.58 -89.94 -137.27c24.83,-16.27 41.41,-30.26 50.13,-41.88 8.33,-11.71 13.67,-24.27 15.4,-37.56 1.71,-13.3 -0.54,-34.8 -6.67,-63.82l-207.69 -984.37zm322.41 554.75l197.15 -129.16 -274.66 -208.95 77.51 338.11zm586.52 -1098.03l538.74 -218.46 61.68 152.07 -50.16 20.34c-34.79,14.1 -55.51,28.79 -61.76,43.57 -6.26,14.77 -0.49,44.46 17.66,89.23l148.48 366.18 250.42 -539.25c-18.04,-44.5 -34.47,-67.97 -49.39,-70.7 -14.82,-2.47 -41.16,3.81 -79.18,19.22l-41.8 16.95 -61.67 -152.07 538.75 -218.47 61.67 152.08 -45.02 18.25c-38.29,15.53 -60.27,31.04 -65.76,46.14 -5.49,15.11 0.43,44.41 18.14,88.09l242.42 597.8c18.58,45.84 35.46,71.96 50.62,78.38 15.15,6.41 45.66,0.32 91.49,-18.26l31.55 -12.79 61.67 152.08 -538.74 218.46 -61.67 -152.07 35.6 -14.44c44.22,-17.93 69.31,-35.01 75.29,-51.25 5.98,-16.23 0,-46.47 -17.72,-90.15l-150.79 -371.83 -252.27 534.65c15.85,37.53 27.36,60.5 34.75,69.43 7,8.77 17.35,13.37 30.48,14.01 13.13,0.65 37.58,-6.44 73.17,-20.87l37.21 -15.09 61.67 152.08 -538.75 218.46 -61.67 -152.08 36.68 -14.87c43.41,-17.6 67.69,-34.36 73.4,-50.48 5.43,-16.02 0.5,-42.91 -14.92,-80.93l-242.96 -599.14c-19.03,-46.92 -36.06,-74.23 -51.12,-81.93 -15.32,-7.6 -40.39,-4.36 -75.17,9.75l-49.35 20.01 -61.67 -152.07zm568.88 -336.18c-132.4,53.69 -241.24,71.76 -326.65,53.95 -85.4,-17.8 -139.11,-53.48 -160.87,-107.13 -13.78,-33.97 -12.79,-66.4 3.17,-96.73 15.85,-30.61 38.66,-51.79 68.85,-64.03 17.79,-7.22 37.18,-9.74 57.89,-7.47 20.98,2.18 37.09,6.31 48.35,12.42 11.28,6.11 27.98,19.43 49.74,39.8 33.81,31.5 62.76,50.22 87.31,56.6 24.72,5.98 63.7,-1.66 117.09,-23.3 52.58,-21.32 85.87,-42.99 99.43,-64.5 13.73,-21.89 22.11,-55.44 24.93,-101.16 1.42,-29.78 4.02,-51.24 7.63,-64.01 3.62,-12.77 12.3,-26.96 25.42,-42.64 13.38,-15.79 29.04,-27.48 47.64,-35.02 29.93,-12.14 61.05,-12.83 93.74,-1.9 32.57,10.64 55.97,33.5 69.86,67.74 21.86,53.93 8.17,116.95 -41.2,188.77 -49.26,72.09 -140.23,135.05 -272.34,188.62zm1248.75 -125.46l-32.15 -160.93 1042.59 -208.3 32.15 160.92 -47.07 9.4c-40.8,8.15 -65.57,19.34 -73.79,33.14 -8.22,13.81 -7.88,43.71 1.35,89.93l126.38 632.58c9.69,48.5 21.39,77.32 35.08,86.47 13.69,9.12 44.8,8.85 92.73,-0.73l33.39 -6.67 192.35 318.22 -141.25 84.6c-39.59,-61.53 -88.48,-110.2 -146.34,-145.83 -58.15,-35.56 -141.11,-42.43 -249.25,-20.82l-504.76 100.84c-107.27,21.44 -181.24,59.65 -221.31,114.54 -39.77,54.83 -66.5,118.63 -79.87,191.31l-162.06 -23.99 55.32 -367.71 42.79 -8.55c55.37,-11.06 86.47,-46.95 93.55,-108l76.43 -688.24c2,-18.2 2.13,-32.47 0.01,-43.02 -9.29,-46.52 -47.29,-62.96 -114.05,-49.62l-52.22 10.44zm779.12 700.67l-160.41 -802.93 -250.81 50.11 -69.66 769.66c-1.44,13.64 -0.98,24.81 0.79,33.67 5.81,29.1 35.54,38.29 89.47,27.52l390.61 -78.04zm628.38 -1089.51l581.31 -7.24 2.05 164.09 -54.11 0.68c-37.53,0.46 -62.19,6.59 -73.39,18.08 -11.21,11.48 -16.66,41.24 -16.05,89.53l4.93 395.11 429.61 -411.01c-0.6,-48 -7.36,-75.85 -20.25,-83.83 -12.9,-7.7 -39.72,-11.44 -80.74,-10.93l-45.1 0.56 -2.05 -164.09 581.31 -7.26 2.04 164.09 -48.58 0.61c-41.32,0.52 -67.43,6.96 -78.04,19.02 -10.62,12.07 -15.78,41.52 -15.2,88.65l8.05 645.03c0.61,49.45 6.82,79.93 18.6,91.43 11.78,11.49 42.41,16.93 91.87,16.32l34.04 -0.43 2.04 164.09 -581.31 7.25 -2.05 -164.09 38.4 -0.48c47.72,-0.59 77.31,-7.37 88.8,-20.31 11.47,-12.95 16.92,-43.29 16.33,-90.42l-5.01 -401.22 -429.68 406.06c1.09,40.72 3.45,66.3 7.07,77.31 3.34,10.73 11.29,18.78 23.29,24.15 12,5.39 37.35,7.69 75.75,7.21l40.15 -0.5 2.05 164.09 -581.31 7.26 -2.05 -164.09 39.57 -0.5c46.84,-0.58 75.56,-7.35 86.75,-20.28 10.9,-12.95 16.09,-39.79 15.58,-80.81l-8.07 -646.48c-0.63,-50.63 -6.55,-82.26 -17.77,-94.93 -11.51,-12.65 -36.02,-18.75 -73.56,-18.29l-53.24 0.67 -2.05 -164.1z"/>
   <g>
    <g>
     <path class="fil0 str0" d="M5719.89 2216.23l-16.01 -186.22 1299.1 -111.71 30.88 358.98 -128.58 11.09 -14.04 0.63c-2.61,4.01 -5.3,10.21 -6.53,13.33l-276.81 696.71c-64.48,162.29 -182.71,271.44 -360.27,286.71 -72.68,6.24 -143.62,-6.73 -206.72,-44.02 -70.85,-41.87 -112.88,-108.5 -119.92,-190.51 -5.22,-60.8 11.23,-118.38 50.34,-165.39 36.61,-44.01 85.3,-73.04 142.79,-77.99 40.06,-3.45 77.6,3.75 111.84,19.36l-343.45 -428.61c-4.22,-5.45 -10.43,-13.54 -16.49,-20.25 -8.52,0.1 -17.96,0.94 -24.45,1.5l-10.81 0.94c6,16.44 11,33.34 14.97,50.66 27.34,119.1 3.1,232.46 -68.24,331.54 -77.71,107.92 -196.18,166.34 -323.15,195.47l-71.45 16.4 13.12 57.2 124.02 -28.46 80.58 351.22 -625.41 143.49 -1005.54 387.81 0.91 1.44 -1162.82 737.24 -192.95 -304.31 107.48 -68.15 -294.86 -465.06 -107.48 68.16 -192.95 -304.33 1162.84 -737.27 192.94 304.34 -107.47 68.14 294.85 465.06 17.58 -11.15 -10.59 -27.46 100.02 -38.6c2.67,-1.02 5.91,-2.26 9.2,-3.63 0.09,-3.67 0.08,-7.23 0.1,-10.25l3.85 -967.58 359.53 -138.66 638.33 700.65c5.25,5.62 13.12,14.09 20.88,21.41 0.6,-0.21 1.18,-0.43 1.76,-0.65l-1.99 -8.67 60.72 -13.93 47.32 -18.25 2.62 6.79 13.39 -3.07 -123.16 -536.7 -124.04 28.46 -80.59 -351.21 649.06 -148.93c67.26,-15.44 139.3,-25.95 208.43,-20.96 61.2,4.42 120.69,20.49 174.92,49.42 30.07,16.04 57.58,35.37 82.38,57.83zm-2487.5 1712.69l36.45 -23.12 -284.87 -449.34 -145.26 92.1 284.89 449.32 108.8 -68.97zm3217.9 -1601.42l-25.51 2.19 16.68 21.48 8.83 -23.67zm-1171.51 193.56l19.32 84.2c20.13,-5.2 47.68,-13.38 58.39,-21.35 6.36,-4.73 10.07,-10.01 12.9,-17.4 2.91,-7.62 1.55,-17.25 -0.21,-24.92 -3.15,-13.71 -7.33,-20.6 -20.13,-26.38 -12.6,-5.68 -47.23,0.56 -59.8,3.45l-10.45 2.41z"/>
     <path id="1" class="fil1" d="M5719.89 2216.23l-16.01 -186.22 1299.1 -111.71 30.88 358.98 -128.58 11.09 -14.04 0.63c-2.61,4.01 -5.3,10.21 -6.53,13.33l-276.81 696.71c-64.48,162.29 -182.71,271.44 -360.27,286.71 -72.68,6.24 -143.62,-6.73 -206.72,-44.02 -70.85,-41.87 -112.88,-108.5 -119.92,-190.51 -5.22,-60.8 11.23,-118.38 50.34,-165.39 36.61,-44.01 85.3,-73.04 142.79,-77.99 40.06,-3.45 77.6,3.75 111.84,19.36l-343.45 -428.61c-4.22,-5.45 -10.43,-13.54 -16.49,-20.25 -8.52,0.1 -17.96,0.94 -24.45,1.5l-10.81 0.94c6,16.44 11,33.34 14.97,50.66 27.34,119.1 3.1,232.46 -68.24,331.54 -77.71,107.92 -196.18,166.34 -323.15,195.47l-71.45 16.4 13.12 57.2 124.02 -28.46 80.58 351.22 -625.41 143.49 -1005.54 387.81 0.91 1.44 -1162.82 737.24 -192.95 -304.31 107.48 -68.15 -294.86 -465.06 -107.48 68.16 -192.95 -304.33 1162.84 -737.27 192.94 304.34 -107.47 68.14 294.85 465.06 17.58 -11.15 -10.59 -27.46 100.02 -38.6c2.67,-1.02 5.91,-2.26 9.2,-3.63 0.09,-3.67 0.08,-7.23 0.1,-10.25l3.85 -967.58 359.53 -138.66 638.33 700.65c5.25,5.62 13.12,14.09 20.88,21.41 0.6,-0.21 1.18,-0.43 1.76,-0.65l-1.99 -8.67 60.72 -13.93 47.32 -18.25 2.62 6.79 13.39 -3.07 -123.16 -536.7 -124.04 28.46 -80.59 -351.21 649.06 -148.93c67.26,-15.44 139.3,-25.95 208.43,-20.96 61.2,4.42 120.69,20.49 174.92,49.42 30.07,16.04 57.58,35.37 82.38,57.83zm-2487.5 1712.69l36.45 -23.12 -284.87 -449.34 -145.26 92.1 284.89 449.32 108.8 -68.97zm3217.9 -1601.42l-25.51 2.19 16.68 21.48 8.83 -23.67zm-1171.51 193.56l19.32 84.2c20.13,-5.2 47.68,-13.38 58.39,-21.35 6.36,-4.73 10.07,-10.01 12.9,-17.4 2.91,-7.62 1.55,-17.25 -0.21,-24.92 -3.15,-13.71 -7.33,-20.6 -20.13,-26.38 -12.6,-5.68 -47.23,0.56 -59.8,3.45l-10.45 2.41z"/>
    </g>
   </g>
   <g>
    <path class="fil2 str1" d="M3249.21 2964.48l78.1 123.21 -36.48 23.12c-31.02,19.67 -47.76,36.72 -50.17,50.8 -2.4,14.09 7.43,38.77 29.88,74.17l307.06 484.3c23.54,37.14 42.45,57.31 56.73,60.51 14.28,3.2 39.98,-6.98 77.12,-30.52l25.56 -16.2 78.11 123.2 -436.45 276.73 -78.11 -123.21 28.83 -18.29c35.82,-22.71 55.06,-41.65 57.7,-56.79 2.64,-15.15 -7.26,-40.43 -29.83,-76.03l-347.64 -548.31 -326.36 206.92 347.64 548.31c23.55,37.14 42.38,57.66 56,61.28 13.63,3.61 38.46,-6.01 74.72,-29l30.15 -19.12 78.11 123.21 -436.47 276.72 -78.1 -123.21 29.7 -18.83c35.18,-22.29 53.75,-40.82 56.18,-55.83 2.2,-14.87 -6.38,-37.6 -25.91,-68.4l-307.75 -485.39c-24.11,-38.02 -43.35,-59.2 -57.74,-63.55 -14.61,-4.2 -36.01,2.62 -64.19,20.48l-39.98 25.35 -78.12 -123.21 981.72 -622.42zm649.68 -299.9l222.75 -85.92 589.86 647.43c31.62,33.82 55.45,53.19 71.39,57.86 16.18,4.57 40.87,0.31 74.17,-12.54l52.49 136.11 -466.23 179.83 -52.5 -136.11 27.95 -11.62c25.83,-9.96 42.61,-20.32 50.3,-31.33 7.76,-10.75 9.58,-21.15 5.77,-31.05 -3.26,-8.45 -14.3,-24.14 -33.71,-47.15l-64.7 -77.91 -298.76 115.24 1.52 113.91c0.71,24.12 2.15,39.36 4.76,46.12 2.88,7.48 8.14,13.21 16.11,17.35 7.64,3.98 18.33,5.13 31.66,3.03 8.71,-1.14 31.53,-8.83 67.97,-22.89l52.49 136.11 -382.26 147.43 -52.49 -136.1c24.61,-9.5 41.63,-18.56 51.39,-27.04 9.43,-8.62 16.42,-18.53 20.41,-29.76 3.98,-11.24 6.04,-30.33 6.13,-56.7l3.54 -894.32zm176.48 542.39l195.48 -75.39 -199.63 -232.94 4.15 308.34zm659.2 -849.11l544.55 -124.94c69.07,-15.85 127.92,-21.92 176.73,-18.52 48.88,3.64 92.86,16.11 132.18,37.08 39.31,20.96 72.27,48.96 98.94,84.24 26.87,34.97 45.18,74.29 55.24,118.16 20.2,87.98 3.35,169.6 -50.75,244.9 -54.16,75.06 -140.87,126.27 -260.11,153.63l-175.97 40.38 44.3 193.11c5.5,23.96 10.79,38.93 15.77,44.42 6.48,8.6 14.85,13.84 24.97,16.3 10.06,2.2 25.95,0.94 47.64,-4.03l52.43 -12.02 32.62 142.18 -502.19 115.22 -32.62 -142.18 34.79 -7.98c30.76,-7.06 50.66,-14.02 59.5,-20.56 8.8,-6.79 14.49,-15.53 16.57,-26.09 2.34,-10.62 0.04,-31.06 -6.84,-61.06l-130.03 -566.72c-7.29,-31.78 -14.06,-51.99 -20.39,-61.14 -6.1,-9.21 -14.14,-15.33 -24,-17.85 -9.68,-2.82 -26.58,-1.33 -51.04,4.28l-49.67 11.39 -32.62 -142.18zm416.69 81.14l67.33 293.45 88.23 -20.25c53.69,-12.32 92,-26.95 114.67,-43.83 22.67,-16.88 38.9,-38.65 49.02,-65.12 10.11,-26.48 11.42,-55.44 4.13,-87.2 -10.88,-47.4 -37.64,-80.8 -80.56,-100.14 -31.97,-14.43 -74.68,-15.51 -127.87,-3.31l-114.95 26.38zm1768.16 -262.88l-19.59 1.68 -19.13 0.87c-43.29,3.73 -74.48,30.54 -94.06,80.53l-276.8 696.7c-53.26,135.42 -143.02,208.57 -269.82,219.46 -54.11,4.66 -101.96,-5.24 -142.99,-29.5 -41.03,-24.25 -63.57,-59.96 -67.64,-107.37 -2.94,-34.01 5.71,-63.32 25.95,-87.65 20.23,-24.32 43.51,-37.49 69.54,-39.72 38.4,-3.3 73.71,11.83 106.68,45.08 14.23,14.61 27.78,21.24 40.93,20.1 18.04,-1.54 32.21,-8.74 42.55,-21.32 10.57,-12.85 22.84,-39.34 37.06,-79.25l16.41 -47.62 -399.58 -498.61c-24.24,-31.4 -43.5,-49.99 -57.52,-56.06 -14,-5.81 -39.82,-7.22 -77.44,-3.98l-12.51 -145.34 522.63 -44.95 12.51 145.34 -62.63 5.39c-26.02,2.24 -38.35,12.9 -36.71,31.98 1.31,15.2 10.5,34.4 27.76,57.06l191.21 246.29 104.46 -279.76c10.95,-29.5 16.3,-48.91 15.52,-57.93 -1.34,-15.72 -18.77,-22.01 -52.01,-19.15l-53.09 4.56 -12.5 -145.34 428.31 -36.83 12.5 145.34z"/>
   </g>
   <path id="1" class="fil3" d="M3249.21 2964.48l78.1 123.21 -36.48 23.12c-31.02,19.67 -47.76,36.72 -50.17,50.8 -2.4,14.09 7.43,38.77 29.88,74.17l307.06 484.3c23.54,37.14 42.45,57.31 56.73,60.51 14.28,3.2 39.98,-6.98 77.12,-30.52l25.56 -16.2 78.11 123.2 -436.45 276.73 -78.11 -123.21 28.83 -18.29c35.82,-22.71 55.06,-41.65 57.7,-56.79 2.64,-15.15 -7.26,-40.43 -29.83,-76.03l-347.64 -548.31 -326.36 206.92 347.64 548.31c23.55,37.14 42.38,57.66 56,61.28 13.63,3.61 38.46,-6.01 74.72,-29l30.15 -19.12 78.11 123.21 -436.47 276.72 -78.1 -123.21 29.7 -18.83c35.18,-22.29 53.75,-40.82 56.18,-55.83 2.2,-14.87 -6.38,-37.6 -25.91,-68.4l-307.75 -485.39c-24.11,-38.02 -43.35,-59.2 -57.74,-63.55 -14.61,-4.2 -36.01,2.62 -64.19,20.48l-39.98 25.35 -78.12 -123.21 981.72 -622.42zm649.68 -299.9l222.75 -85.92 589.86 647.43c31.62,33.82 55.45,53.19 71.39,57.86 16.18,4.57 40.87,0.31 74.17,-12.54l52.49 136.11 -466.23 179.83 -52.5 -136.11 27.95 -11.62c25.83,-9.96 42.61,-20.32 50.3,-31.33 7.76,-10.75 9.58,-21.15 5.77,-31.05 -3.26,-8.45 -14.3,-24.14 -33.71,-47.15l-64.7 -77.91 -298.76 115.24 1.52 113.91c0.71,24.12 2.15,39.36 4.76,46.12 2.88,7.48 8.14,13.21 16.11,17.35 7.64,3.98 18.33,5.13 31.66,3.03 8.71,-1.14 31.53,-8.83 67.97,-22.89l52.49 136.11 -382.26 147.43 -52.49 -136.1c24.61,-9.5 41.63,-18.56 51.39,-27.04 9.43,-8.62 16.42,-18.53 20.41,-29.76 3.98,-11.24 6.04,-30.33 6.13,-56.7l3.54 -894.32zm176.48 542.39l195.48 -75.39 -199.63 -232.94 4.15 308.34zm659.2 -849.11l544.55 -124.94c69.07,-15.85 127.92,-21.92 176.73,-18.52 48.88,3.64 92.86,16.11 132.18,37.08 39.31,20.96 72.27,48.96 98.94,84.24 26.87,34.97 45.18,74.29 55.24,118.16 20.2,87.98 3.35,169.6 -50.75,244.9 -54.16,75.06 -140.87,126.27 -260.11,153.63l-175.97 40.38 44.3 193.11c5.5,23.96 10.79,38.93 15.77,44.42 6.48,8.6 14.85,13.84 24.97,16.3 10.06,2.2 25.95,0.94 47.64,-4.03l52.43 -12.02 32.62 142.18 -502.19 115.22 -32.62 -142.18 34.79 -7.98c30.76,-7.06 50.66,-14.02 59.5,-20.56 8.8,-6.79 14.49,-15.53 16.57,-26.09 2.34,-10.62 0.04,-31.06 -6.84,-61.06l-130.03 -566.72c-7.29,-31.78 -14.06,-51.99 -20.39,-61.14 -6.1,-9.21 -14.14,-15.33 -24,-17.85 -9.68,-2.82 -26.58,-1.33 -51.04,4.28l-49.67 11.39 -32.62 -142.18zm416.69 81.14l67.33 293.45 88.23 -20.25c53.69,-12.32 92,-26.95 114.67,-43.83 22.67,-16.88 38.9,-38.65 49.02,-65.12 10.11,-26.48 11.42,-55.44 4.13,-87.2 -10.88,-47.4 -37.64,-80.8 -80.56,-100.14 -31.97,-14.43 -74.68,-15.51 -127.87,-3.31l-114.95 26.38zm1768.16 -262.88l-19.59 1.68 -19.13 0.87c-43.29,3.73 -74.48,30.54 -94.06,80.53l-276.8 696.7c-53.26,135.42 -143.02,208.57 -269.82,219.46 -54.11,4.66 -101.96,-5.24 -142.99,-29.5 -41.03,-24.25 -63.57,-59.96 -67.64,-107.37 -2.94,-34.01 5.71,-63.32 25.95,-87.65 20.23,-24.32 43.51,-37.49 69.54,-39.72 38.4,-3.3 73.71,11.83 106.68,45.08 14.23,14.61 27.78,21.24 40.93,20.1 18.04,-1.54 32.21,-8.74 42.55,-21.32 10.57,-12.85 22.84,-39.34 37.06,-79.25l16.41 -47.62 -399.58 -498.61c-24.24,-31.4 -43.5,-49.99 -57.52,-56.06 -14,-5.81 -39.82,-7.22 -77.44,-3.98l-12.51 -145.34 522.63 -44.95 12.51 145.34 -62.63 5.39c-26.02,2.24 -38.35,12.9 -36.71,31.98 1.31,15.2 10.5,34.4 27.76,57.06l191.21 246.29 104.46 -279.76c10.95,-29.5 16.3,-48.91 15.52,-57.93 -1.34,-15.72 -18.77,-22.01 -52.01,-19.15l-53.09 4.56 -12.5 -145.34 428.31 -36.83 12.5 145.34z"/>
  </g>
 </g>
</svg>
